<svg id="Layer_1" data-sanitized-data-name="Layer 1" data-name="Layer 1" xmlns="http://www.w3.org/2000/svg" xmlns:xlink="http://www.w3.org/1999/xlink" viewBox="0 0 1384 620">
  <defs>
    <linearGradient id="linear-gradient" x1="316.9" y1="308.01" x2="431.27" y2="308.01" gradientUnits="userSpaceOnUse">
      <stop offset="0" stop-color="#c5d7dd"></stop>
      <stop offset="1" stop-color="#29aae1"></stop>
    </linearGradient>
    <linearGradient id="linear-gradient-2" x1="316.38" y1="308.01" x2="431.27" y2="308.01" gradientUnits="userSpaceOnUse">
      <stop offset="0" stop-color="#6bc4aa" stop-opacity="0"></stop>
      <stop offset="1" stop-color="#62c2a7"></stop>
    </linearGradient>
    <linearGradient id="linear-gradient-3" x1="309.28" y1="333.6" x2="196.65" y2="333.6" xlink:href="#linear-gradient"></linearGradient>
  </defs>
  <rect width="1384" height="620" rx="85.52" ry="85.52" style="fill: #0c2935; stroke-width: 0px;"></rect>
  <path d="M425.77,460.69h-103.88c-3.04,0-5.5-2.46-4.88-5.5V176.39c-.62-13.97,6.46-21.06,20.43-21.06h52.44c12.78,0,20.11,7.3,20.11,20.02v232.15c0,3.04-2.46,5.5-5.5,5.5s-5.5-2.46-5.5-5.5v-232.15c0-6.57-2.47-9.02-9.11-9.02h-52.44c-7.99,0-10.05,2.07-10.05,10.06v273.3h98.38c3.04,0,5.5,2.46,5.5,5.5s-2.46,5.5-5.5,5.5Z" style="fill: url(#linear-gradient); stroke-width: 0px;"></path>
  <path d="M287.07,429.36h-24.2c-2.13,0-3.86-1.73-3.86-3.86v-42.49c0-2.13,1.73-3.86,3.86-3.86h24.2c2.13,0,3.86,1.73,3.86,3.86v42.49c0,2.13-1.73,3.86-3.86,3.86ZM266.72,421.63h16.48v-34.76h-16.48v34.76Z" style="fill: #1f667c; stroke-width: 0px;"></path>
  <path d="M241.75,429.36h-24.2c-2.13,0-3.86-1.73-3.86-3.86v-42.49c0-2.13,1.73-3.86,3.86-3.86h24.2c2.13,0,3.86,1.73,3.86,3.86v42.49c0,2.13-1.73,3.86-3.86,3.86ZM221.4,421.63h16.48v-34.76h-16.48v34.76Z" style="fill: #1f667c; stroke-width: 0px;"></path>
  <path d="M287.07,359.32h-24.2c-2.13,0-3.86-1.73-3.86-3.86v-42.49c0-2.13,1.73-3.86,3.86-3.86h24.2c2.13,0,3.86,1.73,3.86,3.86v42.49c0,2.13-1.73,3.86-3.86,3.86ZM266.72,351.59h16.48v-34.76h-16.48v34.76Z" style="fill: #1f667c; stroke-width: 0px;"></path>
  <path d="M241.75,359.32h-24.2c-2.13,0-3.86-1.73-3.86-3.86v-42.49c0-2.13,1.73-3.86,3.86-3.86h24.2c2.13,0,3.86,1.73,3.86,3.86v42.49c0,2.13-1.73,3.86-3.86,3.86ZM221.4,351.59h16.48v-34.76h-16.48v34.76Z" style="fill: #1f667c; stroke-width: 0px;"></path>
  <path d="M287.07,289.28h-24.2c-2.13,0-3.86-1.73-3.86-3.86v-42.49c0-2.13,1.73-3.86,3.86-3.86h24.2c2.13,0,3.86,1.73,3.86,3.86v42.49c0,2.13-1.73,3.86-3.86,3.86ZM266.72,281.56h16.48v-34.76h-16.48v34.76Z" style="fill: #1f667c; stroke-width: 0px;"></path>
  <path d="M241.75,289.28h-24.2c-2.13,0-3.86-1.73-3.86-3.86v-42.49c0-2.13,1.73-3.86,3.86-3.86h24.2c2.13,0,3.86,1.73,3.86,3.86v42.49c0,2.13-1.73,3.86-3.86,3.86ZM221.4,281.56h16.48v-34.76h-16.48v34.76Z" style="fill: #1f667c; stroke-width: 0px;"></path>
  <path d="M374.55,306.4h-24.2c-2.13,0-3.86-1.73-3.86-3.86v-42.49c0-2.13,1.73-3.86,3.86-3.86h24.2c2.13,0,3.86,1.73,3.86,3.86v42.49c0,2.13-1.73,3.86-3.86,3.86ZM354.21,298.67h16.48v-34.76h-16.48v34.76Z" style="fill: #1f667c; stroke-width: 0px;"></path>
  <path d="M374.55,245.4h-24.2c-2.13,0-3.86-1.73-3.86-3.86v-42.49c0-2.13,1.73-3.86,3.86-3.86h24.2c2.13,0,3.86,1.73,3.86,3.86v42.49c0,2.13-1.73,3.86-3.86,3.86ZM354.21,237.67h16.48v-34.76h-16.48v34.76Z" style="fill: #1f667c; stroke-width: 0px;"></path>
  <path d="M375.52,368.13h-24.2c-2.13,0-3.86-1.73-3.86-3.86v-42.49c0-2.13,1.73-3.86,3.86-3.86h24.2c2.13,0,3.86,1.73,3.86,3.86v42.49c0,2.13-1.73,3.86-3.86,3.86ZM355.18,360.41h16.48v-34.76h-16.48v34.76Z" style="fill: #1f667c; stroke-width: 0px;"></path>
  <path d="M374.49,429.87h-24.2c-2.13,0-3.86-1.73-3.86-3.86v-42.49c0-2.13,1.73-3.86,3.86-3.86h24.2c2.13,0,3.86,1.73,3.86,3.86v42.49c0,2.13-1.73,3.86-3.86,3.86ZM354.15,422.15h16.48v-34.76h-16.48v34.76Z" style="fill: #1f667c; stroke-width: 0px;"></path>
  <path d="M425.77,460.69h-103.88c-3.04,0-5.5-2.46-5.5-5.5V176.39c0-13.97,7.08-21.06,21.05-21.06h52.44c12.78,0,20.11,7.3,20.11,20.02v232.15c0,3.04-2.46,5.5-5.5,5.5s-5.5-2.46-5.5-5.5v-232.15c0-6.57-2.47-9.02-9.11-9.02h-52.44c-7.99,0-10.05,2.07-10.05,10.06v273.3h98.38c3.04,0,5.5,2.46,5.5,5.5s-2.46,5.5-5.5,5.5Z" style="fill: url(#linear-gradient-2); stroke-width: 0px;"></path>
  <path d="M321.76,460.69h-169.76c-3.04,0-5.5-2.46-5.5-5.5s2.46-5.5,5.5-5.5h164.26v-215.84c0-16.35-11.98-16.35-15.92-16.35h-92.69c-14.63,0-15.37,12.91-15.37,15.49v204.54c0,3.04-2.46,5.5-5.5,5.5s-5.5-2.46-5.5-5.5v-204.54c0-12.76,8.25-26.49,26.37-26.49h92.69c16.85,0,26.92,10.23,26.92,27.35v221.34c0,3.04-2.46,5.5-5.5,5.5Z" style="fill: url(#linear-gradient-3); stroke-width: 0px;"></path>
  <path d="M266,194.07c-1.49,0-2.89-.74-3.72-1.97l-22.39-33c-3.63-5.27-5.56-11.48-5.56-17.93,0-17.46,14.21-31.67,31.67-31.67s31.67,14.21,31.67,31.67c0,6.42-1.92,12.61-5.54,17.89l-22.4,33.03c-.84,1.23-2.23,1.97-3.72,1.97ZM266,118.5c-12.5,0-22.67,10.17-22.67,22.67,0,4.62,1.38,9.06,3.99,12.85l18.68,27.53,18.69-27.56c2.61-3.8,3.98-8.23,3.98-12.82,0-12.5-10.17-22.67-22.67-22.67Z" style="fill: #fff; stroke-width: 0px;"></path>
  <g>
    <path d="M520.62,425.63c-3.6-1.62-6.42-3.86-8.46-6.73s-3.1-6.19-3.17-9.95h9.6c.33,3.23,1.67,5.96,4.01,8.17,2.34,2.21,5.76,3.32,10.25,3.32s7.67-1.07,10.15-3.22c2.47-2.14,3.71-4.9,3.71-8.27,0-2.64-.73-4.78-2.18-6.43-1.45-1.65-3.27-2.9-5.44-3.76-2.18-.86-5.12-1.78-8.81-2.77-4.55-1.19-8.2-2.38-10.94-3.56-2.74-1.19-5.08-3.05-7.03-5.59-1.95-2.54-2.92-5.96-2.92-10.25,0-3.76.96-7.09,2.87-10,1.91-2.9,4.6-5.15,8.07-6.73s7.44-2.38,11.93-2.38c6.47,0,11.76,1.62,15.89,4.85,4.12,3.23,6.45,7.52,6.98,12.87h-9.9c-.33-2.64-1.72-4.97-4.16-6.98-2.44-2.01-5.68-3.02-9.7-3.02-3.76,0-6.83.97-9.21,2.92-2.38,1.95-3.56,4.67-3.56,8.17,0,2.51.71,4.55,2.13,6.14,1.42,1.58,3.17,2.79,5.25,3.61,2.08.83,5,1.77,8.76,2.82,4.55,1.25,8.22,2.49,10.99,3.71,2.77,1.22,5.15,3.1,7.13,5.64,1.98,2.54,2.97,5.99,2.97,10.35,0,3.37-.89,6.53-2.67,9.5-1.78,2.97-4.42,5.38-7.92,7.23-3.5,1.85-7.62,2.77-12.38,2.77s-8.63-.81-12.23-2.43Z" style="fill: #fff; stroke-width: 0px;"></path>
    <path d="M645.61,374.74c3.3,1.75,5.91,4.37,7.82,7.87,1.91,3.5,2.87,7.76,2.87,12.77v31.98h-8.91v-30.69c0-5.41-1.34-9.55-4.01-12.42-2.67-2.87-6.29-4.31-10.84-4.31s-8.42,1.5-11.19,4.5c-2.77,3-4.16,7.34-4.16,13.02v29.9h-8.91v-30.69c0-5.41-1.34-9.55-4.01-12.42s-6.29-4.31-10.84-4.31-8.42,1.5-11.19,4.5c-2.77,3-4.16,7.34-4.16,13.02v29.9h-9.01v-54.25h9.01v7.82c1.78-2.84,4.17-5.02,7.18-6.53,3-1.52,6.32-2.28,9.95-2.28,4.55,0,8.58,1.02,12.08,3.07,3.5,2.05,6.1,5.05,7.82,9.01,1.52-3.83,4.02-6.8,7.52-8.91,3.5-2.11,7.39-3.17,11.68-3.17s7.98.88,11.29,2.62Z" style="fill: #fff; stroke-width: 0px;"></path>
    <path d="M671.05,385.43c2.24-4.19,5.33-7.44,9.26-9.75,3.93-2.31,8.3-3.46,13.12-3.46s8.88,1.02,12.38,3.07c3.5,2.05,6.1,4.62,7.82,7.72v-9.9h9.11v54.25h-9.11v-10.1c-1.78,3.17-4.44,5.79-7.97,7.87-3.53,2.08-7.64,3.12-12.33,3.12s-9.17-1.19-13.07-3.56c-3.9-2.38-6.96-5.71-9.21-10-2.24-4.29-3.37-9.17-3.37-14.65s1.12-10.41,3.37-14.6ZM711.15,389.44c-1.65-3.04-3.88-5.36-6.68-6.98-2.81-1.62-5.89-2.43-9.26-2.43s-6.44.79-9.21,2.38c-2.77,1.58-4.98,3.9-6.63,6.93-1.65,3.04-2.48,6.6-2.48,10.69s.82,7.77,2.48,10.84c1.65,3.07,3.86,5.41,6.63,7.03,2.77,1.62,5.84,2.42,9.21,2.42s6.45-.81,9.26-2.42c2.8-1.62,5.03-3.96,6.68-7.03,1.65-3.07,2.48-6.65,2.48-10.74s-.83-7.66-2.48-10.69Z" style="fill: #fff; stroke-width: 0px;"></path>
    <path d="M753.77,374.69c2.94-1.72,6.52-2.57,10.74-2.57v9.31h-2.38c-10.1,0-15.15,5.48-15.15,16.43v29.5h-9.01v-54.25h9.01v8.81c1.58-3.1,3.84-5.51,6.78-7.23Z" style="fill: #fff; stroke-width: 0px;"></path>
    <path d="M785.89,380.53v31.98c0,2.64.56,4.5,1.68,5.59,1.12,1.09,3.07,1.63,5.84,1.63h6.63v7.62h-8.12c-5.02,0-8.78-1.15-11.29-3.46-2.51-2.31-3.76-6.1-3.76-11.38v-31.98h-7.03v-7.42h7.03v-13.66h9.01v13.66h14.16v7.42h-14.16Z" style="fill: #fff; stroke-width: 0px;"></path>
    <path d="M847.02,425.63c-3.6-1.62-6.42-3.86-8.46-6.73s-3.1-6.19-3.17-9.95h9.6c.33,3.23,1.67,5.96,4.01,8.17,2.34,2.21,5.76,3.32,10.25,3.32s7.67-1.07,10.15-3.22c2.47-2.14,3.71-4.9,3.71-8.27,0-2.64-.73-4.78-2.18-6.43-1.45-1.65-3.27-2.9-5.44-3.76-2.18-.86-5.12-1.78-8.81-2.77-4.55-1.19-8.2-2.38-10.94-3.56-2.74-1.19-5.08-3.05-7.03-5.59-1.95-2.54-2.92-5.96-2.92-10.25,0-3.76.96-7.09,2.87-10,1.91-2.9,4.6-5.15,8.07-6.73s7.44-2.38,11.93-2.38c6.47,0,11.76,1.62,15.89,4.85,4.12,3.23,6.45,7.52,6.98,12.87h-9.9c-.33-2.64-1.72-4.97-4.16-6.98-2.44-2.01-5.68-3.02-9.7-3.02-3.76,0-6.83.97-9.21,2.92-2.38,1.95-3.56,4.67-3.56,8.17,0,2.51.71,4.55,2.13,6.14,1.42,1.58,3.17,2.79,5.25,3.61,2.08.83,5,1.77,8.76,2.82,4.55,1.25,8.22,2.49,10.99,3.71,2.77,1.22,5.15,3.1,7.13,5.64,1.98,2.54,2.97,5.99,2.97,10.35,0,3.37-.89,6.53-2.67,9.5-1.78,2.97-4.42,5.38-7.92,7.23-3.5,1.85-7.62,2.77-12.38,2.77s-8.63-.81-12.23-2.43Z" style="fill: #fff; stroke-width: 0px;"></path>
    <path d="M942.21,373.11l-32.67,79.79h-9.31l10.69-26.14-21.88-53.66h10l17.03,43.96,16.83-43.96h9.31Z" style="fill: #fff; stroke-width: 0px;"></path>
    <path d="M959.24,426.12c-3.3-1.42-5.91-3.4-7.82-5.94-1.92-2.54-2.97-5.46-3.17-8.76h9.31c.26,2.71,1.53,4.92,3.81,6.63,2.28,1.72,5.26,2.57,8.96,2.57,3.43,0,6.14-.76,8.12-2.28,1.98-1.52,2.97-3.43,2.97-5.74s-1.06-4.14-3.17-5.3c-2.11-1.15-5.38-2.29-9.8-3.42-4.03-1.05-7.31-2.13-9.85-3.22-2.54-1.09-4.72-2.71-6.53-4.85-1.82-2.14-2.72-4.97-2.72-8.46,0-2.77.82-5.31,2.47-7.62,1.65-2.31,3.99-4.14,7.03-5.49,3.04-1.35,6.5-2.03,10.39-2.03,6,0,10.86,1.52,14.55,4.55,3.7,3.04,5.67,7.19,5.94,12.47h-9.01c-.2-2.84-1.34-5.11-3.42-6.83-2.08-1.71-4.87-2.57-8.37-2.57-3.23,0-5.81.69-7.72,2.08-1.92,1.39-2.87,3.2-2.87,5.45,0,1.78.58,3.25,1.73,4.41,1.15,1.16,2.61,2.08,4.36,2.77,1.75.69,4.17,1.47,7.28,2.33,3.89,1.06,7.06,2.1,9.5,3.12,2.44,1.02,4.54,2.56,6.29,4.6,1.75,2.05,2.66,4.72,2.72,8.02,0,2.97-.83,5.64-2.47,8.02-1.65,2.38-3.98,4.24-6.98,5.59-3,1.35-6.45,2.03-10.35,2.03-4.16,0-7.89-.71-11.19-2.13Z" style="fill: #fff; stroke-width: 0px;"></path>
    <path d="M1013.88,380.53v31.98c0,2.64.56,4.5,1.68,5.59,1.12,1.09,3.07,1.63,5.84,1.63h6.63v7.62h-8.12c-5.02,0-8.78-1.15-11.29-3.46-2.51-2.31-3.76-6.1-3.76-11.38v-31.98h-7.03v-7.42h7.03v-13.66h9.01v13.66h14.16v7.42h-14.16Z" style="fill: #fff; stroke-width: 0px;"></path>
    <path d="M1088.13,403.6h-43.36c.33,5.35,2.16,9.52,5.5,12.52,3.33,3,7.38,4.5,12.13,4.5,3.89,0,7.14-.91,9.75-2.72,2.61-1.81,4.44-4.24,5.49-7.28h9.7c-1.45,5.21-4.36,9.46-8.71,12.72-4.36,3.27-9.77,4.9-16.24,4.9-5.15,0-9.75-1.15-13.81-3.46-4.06-2.31-7.24-5.59-9.55-9.85-2.31-4.26-3.46-9.19-3.46-14.8s1.12-10.53,3.37-14.75c2.24-4.22,5.4-7.47,9.45-9.75,4.06-2.28,8.73-3.42,14.01-3.42s9.7,1.12,13.66,3.37c3.96,2.25,7.01,5.33,9.16,9.26,2.14,3.93,3.22,8.37,3.22,13.32,0,1.72-.1,3.53-.3,5.45ZM1076.85,387.42c-1.52-2.48-3.58-4.36-6.19-5.64-2.61-1.29-5.49-1.93-8.66-1.93-4.55,0-8.43,1.45-11.63,4.36-3.2,2.91-5.03,6.93-5.49,12.08h34.25c0-3.43-.76-6.39-2.28-8.86Z" style="fill: #fff; stroke-width: 0px;"></path>
    <path d="M1176.84,374.74c3.3,1.75,5.91,4.37,7.82,7.87,1.91,3.5,2.87,7.76,2.87,12.77v31.98h-8.91v-30.69c0-5.41-1.34-9.55-4.01-12.42-2.67-2.87-6.29-4.31-10.84-4.31s-8.42,1.5-11.19,4.5c-2.77,3-4.16,7.34-4.16,13.02v29.9h-8.91v-30.69c0-5.41-1.34-9.55-4.01-12.42s-6.29-4.31-10.84-4.31-8.42,1.5-11.19,4.5c-2.77,3-4.16,7.34-4.16,13.02v29.9h-9.01v-54.25h9.01v7.82c1.78-2.84,4.17-5.02,7.18-6.53,3-1.52,6.32-2.28,9.95-2.28,4.55,0,8.58,1.02,12.08,3.07,3.5,2.05,6.1,5.05,7.82,9.01,1.52-3.83,4.02-6.8,7.52-8.91,3.5-2.11,7.39-3.17,11.68-3.17s7.98.88,11.29,2.62Z" style="fill: #fff; stroke-width: 0px;"></path>
    <path d="M1210.3,426.12c-3.3-1.42-5.91-3.4-7.82-5.94-1.92-2.54-2.97-5.46-3.17-8.76h9.31c.26,2.71,1.53,4.92,3.81,6.63,2.28,1.72,5.26,2.57,8.96,2.57,3.43,0,6.14-.76,8.12-2.28,1.98-1.52,2.97-3.43,2.97-5.74s-1.06-4.14-3.17-5.3c-2.11-1.15-5.38-2.29-9.8-3.42-4.03-1.05-7.31-2.13-9.85-3.22-2.54-1.09-4.72-2.71-6.53-4.85-1.82-2.14-2.72-4.97-2.72-8.46,0-2.77.82-5.31,2.47-7.62,1.65-2.31,3.99-4.14,7.03-5.49,3.04-1.35,6.5-2.03,10.39-2.03,6,0,10.86,1.52,14.55,4.55,3.7,3.04,5.67,7.19,5.94,12.47h-9.01c-.2-2.84-1.34-5.11-3.42-6.83-2.08-1.71-4.87-2.57-8.37-2.57-3.23,0-5.81.69-7.72,2.08-1.92,1.39-2.87,3.2-2.87,5.45,0,1.78.58,3.25,1.73,4.41,1.15,1.16,2.61,2.08,4.36,2.77,1.75.69,4.17,1.47,7.28,2.33,3.89,1.06,7.06,2.1,9.5,3.12,2.44,1.02,4.54,2.56,6.29,4.6,1.75,2.05,2.66,4.72,2.72,8.02,0,2.97-.83,5.64-2.47,8.02-1.65,2.38-3.98,4.24-6.98,5.59-3,1.35-6.45,2.03-10.35,2.03-4.16,0-7.89-.71-11.19-2.13Z" style="fill: #fff; stroke-width: 0px;"></path>
  </g>
  <g>
    <path d="M927.95,188.18l14.44-6.24c.29-.12,1.2,1.56,2.04,3.73h0c.85,2.18,1.3,4.05,1.02,4.17l-14.46,6.24c-.28.12-1.2-1.55-2.04-3.73h0c-.83-2.18-1.28-4.06-1-4.17h0Z" style="fill: #fff; fill-rule: evenodd; stroke-width: 0px;"></path>
    <path d="M546.76,211.67c-13.64,0-20.45,5.93-20.45,17.81,0,8.8,8.36,17.09,25.07,24.86,20.52,9.39,30.79,19.64,30.79,30.79,0,17.3-11.8,25.95-35.41,25.95s-35.41-8.65-35.41-25.95h14.96c0,12.02,6.82,18.03,20.45,18.03s20.45-6.02,20.45-18.03c0-8.8-8.36-17.01-25.07-24.63l-.66-.21-.66-.44c-19.65-9.1-29.47-19.21-29.47-30.36,0-17.15,11.8-25.73,35.41-25.73s35.41,8.58,35.41,25.73h-14.95c0-11.88-6.82-17.81-20.45-17.81h0Z" style="fill: #fff; fill-rule: evenodd; stroke-width: 0px;"></path>
    <path d="M611.86,203.75v107.33h-14.95v-107.33h14.95ZM611.86,180v10.77h-14.95v-10.77h14.95Z" style="fill: #fff; fill-rule: evenodd; stroke-width: 0px;"></path>
    <path d="M664.21,211.67c-14.67,0-22.21,8.43-22.66,25.29v74.12h-14.95v-107.33h14.95v7.7c5.28-5.13,12.83-7.7,22.66-7.7,25.07,0,37.61,11.44,37.61,34.31v73.02h-15.18v-73.02c0-17.59-7.48-26.39-22.43-26.39h0Z" style="fill: #fff; fill-rule: evenodd; stroke-width: 0px;"></path>
    <path d="M753.93,303.16c14.96,0,22.43-8.87,22.43-26.62v-38.48c0-17.59-7.48-26.39-22.43-26.39s-22.65,8.8-22.65,26.39v38.48c0,17.74,7.55,26.62,22.65,26.62h0ZM716.32,276.54v-38.48c0-22.87,12.54-34.31,37.61-34.31s37.61,11.44,37.61,34.31v38.48c0,23.02-12.53,34.53-37.61,34.53s-37.61-11.51-37.61-34.53h0Z" style="fill: #fff; fill-rule: evenodd; stroke-width: 0px;"></path>
    <path d="M843.67,303.16c14.95,0,22.43-8.87,22.43-26.62v-38.48c0-17.59-7.48-26.39-22.43-26.39s-22.65,8.8-22.65,26.39v65.1h22.65ZM806.05,345.6v-141.85h14.96v7.48c5.13-4.98,12.53-7.48,22.21-7.48h.44c25.07,0,37.6,11.44,37.6,34.31v38.48c0,23.02-12.53,34.53-37.6,34.53h-22.65v29.03l-14.96,5.49h0Z" style="fill: #fff; fill-rule: evenodd; stroke-width: 0px;"></path>
    <path d="M933.39,211.67c-15.1,0-22.65,8.8-22.65,26.39v15.4h45.08v-15.4c0-17.59-7.48-26.39-22.43-26.39h0ZM933.39,203.75c25.08,0,37.61,11.44,37.61,34.31v23.31h-60.26v15.17c0,17.74,7.54,26.62,22.65,26.62s22.43-6.67,22.43-20.02h15.17c0,18.63-12.53,27.94-37.61,27.94s-37.61-11.51-37.61-34.53v-38.48c0-22.87,12.54-34.31,37.61-34.31h0Z" style="fill: #fff; fill-rule: evenodd; stroke-width: 0px;"></path>
  </g>
</svg>